# xmcd CD database file generated by LOLA_Freedb v0.9beta0
# 
# Track frame offsets:
#      150
#      19896
#      44274
#      62982
#      84621
#      101519
#      119426
#      142154
# 
# Disc length: 2411 seconds
# 
# Revision: 0 
# Processed by: cddbd v1.5.2PL0 Copyright (c) Steve Scherf et al.
# Submitted via: LOLA_Freedb v0.9beta0
# 
DISCID=71096908
DTITLE=The Masqueraders - Love Anonymous
DYEAR=1977
DGENRE=
TTITLE0=Modern Day Woman
TTITLE1=Love Between A Woman And A Man
TTITLE2=Can't Nobody Love Me Like You Do
TTITLE3=Love Anonymous
TTITLE4=The Bicentennial
TTITLE5=Be For Real
TTITLE6=It's A Terrible Thing To Waste Your Love
TTITLE7=Runaway Slave
EXTD=
EXTT0=
EXTT1=
EXTT2=
EXTT3=
EXTT4=
EXTT5=
EXTT6=
EXTT7=
PLAYORDER=
